# xmcd
#
# Track frame offsets:
#	150
#	15182
#	35226
#	51352
#	71694
#	91721
#	115367
#	132161
#	153767
#	170982
#	188261
#	207085
#	227551
#	247029
#	269383
#
# Disc length: 3783 seconds
#
# Revision: 1
# Processed by: cddbd v1.5.1PL0 Copyright (c) Steve Scherf et al.
# Submitted via: audiograbber 1.83.01
#
DISCID=c60ec50f
DTITLE=César Oliveira and Rogerio Melo - Apaysanado
DYEAR=2005
DGENRE=Gaúcho
TTITLE0=A Cusco e Mangaço
TTITLE1=O Que é Sagrado Pra Mim
TTITLE2=Um milongão Dos Veiaco
TTITLE3=Romance Dos Olhos Negros
TTITLE4=Empurrando Tropa
TTITLE5=Apaysanado
TTITLE6=Os Loco Lá Da fronteira
TTITLE7=Estampa De Peão Fronteiro
TTITLE8=Tango Do Bochincheiro
TTITLE9=Revisada
TTITLE10=Pra Bailar De Cola Atada
TTITLE11=Crioulo Das 3  Vendas
TTITLE12=Na Presilha Do Laço
TTITLE13=Imagens
TTITLE14=Meu Mundo De Domador
EXTD=
EXTT0=
EXTT1=
EXTT2=
EXTT3=
EXTT4=
EXTT5=
EXTT6=
EXTT7=
EXTT8=
EXTT9=
EXTT10=
EXTT11=
EXTT12=
EXTT13=
EXTT14=
PLAYORDER=
